<svg width="1007" height="1080" viewBox="0 0 1007 1080" fill="none" xmlns="http://www.w3.org/2000/svg">
<g clip-path="url(#clip0_64_406)">
<path d="M812.631 517.944C822.73 506.099 832.419 491.986 842.441 479.903C847.217 474.148 852.669 465.532 858.341 461.009C862.496 457.724 867.546 455.773 872.832 455.417C880.417 454.861 887.499 457.116 893.219 462.164C898.757 467.066 902.091 473.986 902.474 481.369C902.722 485.391 901.995 489.414 900.347 493.092C896.511 501.793 877.242 523.402 870.531 533.011C887.366 527.72 905.252 518.928 922.022 512.869C939.186 506.671 954.459 514.123 959.649 531.373C961.593 537.672 960.854 544.502 957.592 550.235C948.657 566.317 920.063 570.435 903.477 579.501C915.64 579.866 925.07 578.694 934.198 588.58C939.235 594.009 941.884 601.231 941.548 608.623C941.2 615.774 938.014 622.491 932.7 627.282C930.041 629.672 924.359 633.166 920.874 633.445C895.734 635.455 869.977 633.198 844.707 633.402C841.464 633.43 837.862 633.401 834.673 633.202L833.811 633.146C761.567 719.809 667.873 796.496 551.286 807.218C505.85 811.207 460.138 803.777 418.305 785.602C406.118 780.409 394.804 773.634 383.817 768.909C380.157 768.095 355.437 750.842 351.227 747.718C347.4 745.347 342.482 741.313 338.815 738.48C323.736 724.286 306.951 711.802 293.038 696.281C289.294 692.111 285.227 687.546 281.131 683.78C283.661 683.753 293.374 681.634 296.166 680.951C329.529 672.832 356.634 655.153 383.067 633.913C398.476 647.673 414.117 660.922 431.909 671.569C434.376 673.05 437.07 674.686 439.405 676.352C447.769 680.168 454.216 683.593 463.019 687.042C478.606 693.069 494.78 697.698 511.516 699.037C598.904 713.035 701.689 628.749 750.184 563.57C753.592 558.994 758.498 491.547 763.414 478.04C765.212 472.959 768.46 468.515 772.759 465.262C791.455 451.338 816.694 464.87 816.446 487.89C816.344 497.28 813.86 508.458 812.631 517.944Z" fill="#16EF75"/>
<path d="M408.847 657.358C426.361 668.316 444.016 678.731 463.351 686.217C466.033 687.26 468.965 688.417 471.548 689.665C463.016 690.33 442.632 676.297 433.482 674.672C431.82 674.69 426.033 677.699 425.389 678.74C417.058 692.218 408.617 705.759 399.944 719.059C397.208 723.253 391.854 726.968 389.069 731.585C384.669 738.888 383.601 745.571 376.062 750.478C375.023 751.141 373.788 758.132 373.617 759.991C376.038 763.911 396.145 771.95 396.701 774.907C392.528 773.217 386.998 770.073 382.906 767.9C365.644 756.459 346.991 746.991 330.655 734.046C326.26 730.569 321.48 726.757 316.806 723.737C319.295 723.282 328.511 719.553 331.146 718.408C362.658 704.766 386.384 682.761 408.847 657.358Z" fill="#07A85B"/>
<path d="M808.622 531.561C810.38 531.899 812.085 532.402 813.2 533.945C830.31 557.55 823.256 590.305 802.089 608.805C799.957 608.898 799.885 608.82 797.942 607.807C795.34 603.626 800.562 598.972 803.257 595.484C814.359 581.109 818.413 562.528 810.703 545.603C809.13 542.142 805.933 539.413 805.748 535.332C806.283 533.325 806.964 533.016 808.622 531.561Z" fill="#167B42"/>
<path d="M835.52 534.133C837.313 534.453 837.747 534.695 839.36 535.393C839.767 535.906 840.181 536.421 840.588 536.934C840.363 541.772 839.461 548.209 839.52 552.886C839.651 558.93 840.487 564.934 842.016 570.782C843.814 577.536 847.763 584.012 851.617 589.777C854.095 593.474 860.771 600.046 861.622 603.683C860.936 606.406 861.127 605.584 858.994 607.896C855.893 607.545 854.763 606.584 852.557 604.278C837.489 588.502 828.699 565.208 831.738 543.384C832.245 539.718 832.87 536.781 835.52 534.133Z" fill="#167B42"/>
<path d="M288.908 117.545H289.911C295.246 117.503 301.207 116.337 306.596 115.966C332.204 114.205 356.621 103.874 370.539 132.926C372.7 140.75 372.728 148.561 369.538 156.143L368.764 159.559C371.205 161.29 408.475 155.159 416.176 161.519C424.646 168.513 430.071 172.207 432.217 184.312C433.623 192.551 431.63 201.009 426.692 207.752C423.155 212.675 419.026 215.978 413.68 218.775C425.147 229.407 434.84 237.472 445.698 249.069C480.624 286.369 494.628 323.921 496.644 374.529C497.35 397.294 495.996 420.075 492.598 442.596C492.366 444.034 491.498 449.901 491.011 450.978C490.881 455.857 487.744 469.583 486.569 474.855C477.638 515.098 464.239 554.22 446.621 591.491C444.377 596.345 439.481 607.235 436.518 611.166C433.459 621.158 410.222 656.515 403.524 665.922C400.31 670.432 394.149 677.747 391.546 682.312C370.053 708.539 347.169 731.42 316.192 746.235C313.601 747.478 304.532 751.551 302.062 752.098C273.056 760.878 241.844 766.366 211.423 764.114C208.854 764.268 207.63 763.923 205.688 765.184C204.845 767.374 204.043 769.571 203.366 771.816C197.768 790.378 191.115 808.909 186.071 827.618C180.845 842.089 175.406 859.727 170.872 874.585C168.89 879.181 167.234 884.017 165.796 888.809C156.883 918.538 146.483 947.903 137.433 977.557C125.481 1014.73 112.136 1053.67 101.13 1091H0V1052.55C2.89244 1047.87 12.0422 1019.33 14.3749 1012.41C19.7058 998.278 24.9372 982.085 29.9109 967.707C37.4483 946.242 44.8667 924.739 52.1659 903.2C56.4297 890.415 65.1511 868.058 67.987 855.784C57.0468 848.425 39.6847 842.472 26.4904 840.107C23.6053 844.912 20.3503 853.839 18.2124 859.309C14.1557 869.848 10.0317 880.356 5.84066 890.84C4.88414 893.208 1.28673 902.338 0 904.073V770.038V218.298C1.26185 217.136 7.55459 209.442 8.94686 207.758C15.0808 200.337 20.8808 194.353 27.5886 187.717C75.4684 140.345 115.535 135.895 179.362 129.254C192.214 127.473 205.04 126.904 218.164 124.907C219.073 125.026 221.327 124.849 222.362 124.797L224.991 124.485C245.806 121.634 267.946 119.659 288.908 117.545ZM106.631 745.208C99.797 742.107 76.2583 733.18 69.2339 731.156C62.5127 749.945 53.877 769.632 46.774 788.957L26.4904 840.107C33.641 841.701 63.5702 850.228 67.987 855.784C72.1577 845.626 93.5292 783.764 97.1801 773.354C100.303 764.446 104.095 754.215 106.631 745.208ZM150.009 242.928C153.021 242.412 154.094 241.838 157.051 242.591L157.029 243.489C154.929 245.151 152.44 246.802 151.081 249.017C151.032 250.897 151.323 251.435 151.476 253.077C153.111 270.608 150.637 288.332 152.331 305.979C152.58 308.576 151.191 314.638 152.11 316.348L154.455 315.288C156.026 317.039 160.664 323.787 160.635 326.144L160.136 326.651C158.022 325.002 157.042 323.494 154.828 322.48L154.309 322.952C136.678 312.94 120.514 314.335 105.989 328.883C105.481 332.476 112 333.5 112 343C112 351.5 106.5 349.686 115 358C124.5 367.292 121 362.5 142.5 355.5C159.466 345.044 158.5 364 162 362C163.5 361.5 163.053 359.836 164.457 360.928L165.679 360.38L165.607 361.685C163.649 363.428 162.609 363.72 162.058 365.909C162.81 368.046 165.027 371.339 164.951 372.292C164.426 378.893 168.357 383.428 168.613 389.627C170.345 392.361 175.588 394.521 175.721 398.127C172.431 398.205 162.483 392.214 157.01 396.293L156.896 396.679C152.47 399.681 150.057 401.702 149.252 407.521C147.418 420.778 152.762 435.797 160.277 446.351C161.167 447.612 162.098 448.843 163.069 450.043C175.035 462.046 184.849 466.254 201.578 467.854C208.054 470.007 213.919 466.482 218.128 467.675C216.848 469.662 218.472 467.441 216.84 468.844C212.933 472.191 214.027 474.99 209.626 479.125L209.843 480.029C211.888 480.435 214.984 481.05 217 481.457C217.719 481.598 218.5 484.17 220.052 482.81C220.355 482.595 220.657 482.379 220.96 482.164C222.898 484.477 227.245 492.414 226.924 495.373L226.299 495.798C226.406 495.865 229.479 497.68 229.432 497.619C230.022 498.394 229.834 500.412 231.127 500.824L231.607 498.609C232.552 500.596 231.147 503.162 232.083 504.534C234.879 508.638 240.727 512.797 244.181 516.119C245.432 517.325 243.151 518.783 248.089 521.656C253.579 524.843 260.466 533.702 265.329 538.286C266.383 539.282 270.517 540.771 271.109 541.682C273.539 545.441 277.182 551.261 282.163 552.516L283.419 551.692C284.485 554.337 287.348 557.475 289.441 559.394L297.063 560.403C300.239 564.852 303.228 569.281 306.246 573.822C307.919 574.874 310.072 574.701 311.914 575.649C313.86 576.646 321.709 584.422 323.123 584.361C332.285 583.961 328.884 588.083 333.289 590.648H334.336C333.711 588.575 332.564 586.274 333.036 584.564L333.714 584.416C334.16 587.049 337.236 590.796 339.44 592.23C339.913 590.882 339.678 590.47 339.537 588.95L340.132 588.741L340.228 593.411L340.61 593.626L342.327 592.063C344.365 592.31 348.341 593.306 349.616 592.691L350.395 591.067C350.55 592.346 350.733 593.626 350.943 594.906C352.608 596.05 354.23 596.659 354.595 598.234L353.988 599.299L352.182 599.508C352.518 599.52 352.855 599.538 353.192 599.557C353.391 601.329 353.005 600.627 354.332 601.747C356.682 601.04 368.975 606.257 373.781 606.768C376.492 609.044 379.314 613.135 382.921 612.341C386.182 611.628 388.82 615.879 391.005 617.073C394.337 618.894 393.505 614.132 397.058 618.5C401.463 619.755 404.131 620.303 408.044 622.702C410.686 622.653 417.874 621.804 418.969 621.865L419.084 623.563C420.391 622.997 420.998 622.61 422.473 622.905C423.021 624.862 423.308 625.803 424.095 627.667L425.375 628.202C429.342 626.443 432.835 612.095 436.518 611.166C439.481 607.235 444.377 596.345 446.621 591.491C464.239 554.22 477.638 515.098 486.569 474.855C487.744 469.583 490.881 455.857 491.011 450.978C491.498 449.901 492.366 444.034 492.598 442.596C495.996 420.075 497.35 397.294 496.644 374.529C494.628 323.921 480.624 286.369 445.698 249.069C434.84 237.472 425.147 229.407 413.68 218.775C419.026 215.978 423.155 212.675 426.692 207.752C431.63 201.009 433.623 192.551 432.217 184.312C430.071 172.207 424.646 168.513 416.176 161.519C408.475 155.159 371.205 161.29 368.764 159.559L369.538 156.143C372.728 148.561 372.7 140.75 370.539 132.926C356.621 103.874 332.204 114.205 306.596 115.966C301.207 116.337 295.246 117.503 289.911 117.545H288.908C267.946 119.659 245.806 121.634 224.991 124.485L222.362 124.797C221.327 124.849 219.073 125.026 218.164 124.907C205.04 126.904 192.214 127.473 179.362 129.254C181.121 129.411 181.582 129.151 182.812 130.026L183.067 130.034L182.195 130.996C182.317 132.198 182.181 131.824 182.786 132.796C179.976 136.476 178.247 133.757 176.146 138.411C171.817 147.999 171.255 160.74 166.786 169.691L168.41 170.948L168.424 171.84C164.859 175.318 165.394 176.495 164.264 181.354L163.193 180.499L163.464 180.675L162.884 180.83C161.485 188.922 163.619 193.499 158.548 201.267C158.173 201.842 156.629 210.868 156.281 212.528C158.257 214.535 159.68 215.723 160.983 218.235L160.78 219.429C157.499 221.446 148.978 221.309 148.298 224.401C143.003 226.853 118.304 235.396 135.909 246.722C139.53 249.052 146.226 244.057 150.009 242.928Z" fill="#19E36D"/>
<path d="M287.764 119.079H288.768C294.102 119.037 300.063 117.871 305.452 117.5C331.061 115.739 355.477 105.408 369.395 134.46C371.556 142.284 371.584 150.095 368.395 157.677L367.621 161.092C370.062 162.824 407.332 156.693 415.033 163.053C423.503 170.047 428.927 173.741 431.073 185.846C432.48 194.085 430.487 202.543 425.549 209.286C422.011 214.209 417.883 217.512 412.536 220.309C424.004 230.941 433.696 239.006 444.554 250.603C479.481 287.903 493.484 325.455 495.5 376.063C496.206 398.828 494.852 421.609 491.454 444.13C491.222 445.568 490.354 451.435 489.868 452.512C489.737 457.391 486.6 471.116 485.426 476.389C476.494 516.632 463.095 555.754 445.477 593.025C443.234 597.879 438.338 608.769 435.375 612.7C431.692 613.629 428.198 627.977 424.232 629.736L422.952 629.201C422.164 627.337 421.877 626.395 421.329 624.439C419.854 624.144 419.248 624.531 417.94 625.097L417.825 623.399C416.73 623.338 409.542 624.187 406.9 624.236C402.988 621.837 400.319 621.289 395.914 620.034C392.361 615.666 393.193 620.428 389.861 618.607C387.676 617.413 385.038 613.162 381.777 613.875C378.17 614.669 375.348 610.578 372.637 608.301C367.831 607.791 355.538 602.574 353.188 603.281C351.862 602.161 352.248 602.863 352.048 601.091C351.711 601.072 351.375 601.054 351.038 601.042L352.844 600.832L353.451 599.768C353.086 598.193 351.464 597.584 349.799 596.44C349.589 595.16 349.407 593.88 349.252 592.601L348.472 594.225C347.197 594.84 343.221 593.843 341.183 593.597L339.467 595.16L339.085 594.945L338.989 590.275L338.393 590.484C338.535 592.004 338.77 592.416 338.296 593.763C336.092 592.33 333.016 588.583 332.57 585.95L331.892 586.098C331.42 587.808 332.568 590.109 333.193 592.182H332.146C327.741 589.617 331.142 585.495 321.979 585.895C320.565 585.956 312.717 578.18 310.77 577.183C308.929 576.235 306.776 576.408 305.102 575.356C302.085 570.815 299.096 566.385 295.919 561.937L288.298 560.928C286.204 559.009 283.341 555.871 282.275 553.226L281.019 554.05C276.038 552.795 272.395 546.975 269.965 543.216C269.373 542.305 265.24 540.816 264.186 539.82C259.322 535.236 252.435 526.377 246.946 523.19C242.007 520.317 244.288 518.859 243.037 517.653C239.583 514.33 233.735 510.172 230.939 506.068C230.003 504.696 231.408 502.13 230.463 500.143L229.983 502.358C228.69 501.946 228.878 499.928 228.289 499.153C228.335 499.214 225.263 497.399 225.155 497.332L225.781 496.907C226.101 493.948 221.754 486.011 219.816 483.698C219.514 483.913 219.211 484.129 218.908 484.344C217.356 485.704 216.575 483.132 215.856 482.99C213.84 482.584 210.744 481.969 208.699 481.563L208.482 480.659C212.883 476.524 211.79 473.725 215.697 470.378C217.328 468.975 215.704 471.196 216.984 469.209C212.775 468.016 206.91 471.541 200.434 469.388C204.198 469.388 205.66 469.412 209.337 468.723C222.995 468.373 255.371 452.032 249.502 434.292C246.561 425.401 228.93 421.382 220.466 418.07C210.896 414.779 201.453 411.068 191.919 407.619C179.772 404.021 166.949 395.986 154.5 398L158.5 394.5C163.973 390.422 171.211 396.578 174.5 396.5C174.368 392.894 169.201 393.895 167.47 391.161C167.213 384.961 163.283 380.427 163.808 373.826C163.883 372.873 161.666 369.58 160.914 367.443C161.465 365.254 162.505 364.961 164.463 363.219L161 366L163.314 362.462C167.282 345.5 168.514 349.937 170.5 340C172.91 353.354 167.541 362.139 167.735 350.736C167.931 339.13 160.63 332.275 153.165 324.486L153.684 324.014C155.899 325.028 156.878 326.536 158.993 328.185L159.491 327.678C159.521 325.321 154.882 318.573 153.312 316.822L150.966 317.882C150.047 316.171 151.436 310.11 151.187 307.513C149.494 289.866 151.968 272.142 150.333 254.611C150.179 252.969 149.889 252.431 149.937 250.551C151.297 248.336 153.785 246.685 155.886 245.023L155.908 244.125C152.95 243.371 151.877 243.946 148.866 244.462C159.118 238.254 173.013 237.533 184.515 238.997C189.209 239.594 200.226 242.605 203.2 237.457C210.719 224.435 194.396 221.937 185.315 221.536C170.639 220.157 160.551 222.196 147.155 225.935C147.835 222.843 156.355 222.979 159.637 220.963L159.84 219.769C158.536 217.257 157.113 216.069 155.138 214.062C155.486 212.402 157.029 203.376 157.404 202.801C162.475 195.033 160.342 190.456 161.741 182.364L162.321 182.209L162.049 182.033L163.12 182.888C164.25 178.029 163.715 176.852 167.281 173.374L167.266 172.482L165.642 171.225C170.111 162.274 170.673 149.533 175.002 139.945C177.103 135.291 178.833 138.01 181.643 134.33C181.037 133.358 181.174 133.732 181.051 132.53L181.924 131.568L181.668 131.56C180.438 130.685 179.977 130.945 178.219 130.788C191.07 129.007 203.896 128.438 217.02 126.441C217.93 126.56 220.184 126.383 221.219 126.331L223.847 126.019C244.663 123.168 266.803 121.193 287.764 119.079ZM332.021 276.352C319.347 287.476 335.342 293.384 343.173 298.832C350.557 304.042 356.708 310.808 361.193 318.655C363.692 322.951 368.107 334.809 371.318 336.503C380.237 339.817 384.615 333.477 382.998 324.924C380.01 309.124 349.449 271.878 332.021 276.352ZM315.901 404.699C316.909 407.366 318.264 411.084 318.579 413.777C319.291 419.856 323.584 422.978 329.478 420.581C335.348 418.194 332.41 407.562 330.819 403.41C325.106 388.489 310.794 378.027 294.534 379.731C284.859 380.595 277.344 383.69 270.631 390.812C268.151 393.444 268.636 399.795 270.751 402.242C278.685 407.074 298.739 379.172 315.901 404.699Z" fill="#19E36D"/>
<path d="M333.165 274.818C332.084 254.059 334.399 235.435 335.617 214.844C335.874 210.498 335.792 210.178 338.042 206.436C339.216 204.484 341.46 183.168 342.074 182.327C348.513 172.541 351.934 160.293 356.073 149.084C360.421 137.309 357.789 139.595 365.443 128.38C365.051 127.268 365.031 127.174 364.888 126.003L365.477 126.269C370.238 133.66 371.615 137.537 370.673 146.418C370.324 149.713 369.349 152.896 369.538 156.143L368.764 159.559C371.205 161.29 408.475 155.159 416.177 161.519C424.647 168.513 430.071 172.207 432.217 184.312C433.623 192.551 431.63 201.009 426.693 207.752C423.155 212.675 419.027 215.978 413.68 218.775C425.147 229.407 434.84 237.472 445.698 249.069C480.625 286.369 494.628 323.921 496.644 374.529C497.35 397.294 495.996 420.075 492.598 442.596C492.366 444.034 491.498 449.901 491.011 450.978C489.202 453.593 487.9 462.513 487.195 466.143C485.987 465.78 483.815 458.939 481.978 458.65C475.89 457.684 469.068 457.284 463.286 454.755C457.054 451.839 452.828 445.872 446.319 442.993C438.845 439.687 432.824 443.854 430.311 434.293C429.2 430.072 422.001 431.175 417.959 429.287C413.017 428.859 410.163 416.821 407.97 415.703C401.96 412.639 399.166 414.165 396.67 405.601C395.733 402.387 392.725 401.892 389.797 400.919C386.547 399.84 385.441 394.029 382.925 391.622C381.51 389.376 373.648 382.559 373.119 380.994C370.34 372.778 367.843 368.964 361.738 363.781C360.743 362.935 356.666 354.136 355.25 352.596C354.602 351.89 353.597 344.147 352.191 341.43C344.972 337.214 347.964 322.345 342.236 316.35C335.709 309.519 341.14 309.33 341.335 304.76C341.372 303.875 339.394 300.287 339.072 299.007L340.294 299.383C342.392 298.968 342.695 298.702 344.317 297.298C351.701 302.508 357.852 309.275 362.337 317.121C364.836 321.417 369.251 333.275 372.462 334.969C381.381 338.283 385.759 331.943 384.141 323.39C381.154 307.59 350.592 270.344 333.165 274.818Z" fill="#19E36D"/>
<path d="M106.631 745.208C134.885 753.212 162.104 760.539 191.521 762.92C194.891 763.191 209.564 762.908 211.423 764.114C208.854 764.268 207.63 763.923 205.688 765.184C204.845 767.374 204.043 769.571 203.366 771.816C197.768 790.378 191.115 808.909 186.071 827.618C180.845 842.089 175.406 859.727 170.872 874.585C168.89 879.181 167.234 884.017 165.796 888.809C156.883 918.538 146.482 947.903 137.433 977.557C125.481 1014.73 112.136 1053.67 101.13 1091H0V1052.55C2.89244 1047.87 12.0422 1019.33 14.3749 1012.41C19.7058 998.278 24.9372 982.085 29.9109 967.707C37.4483 946.242 44.8667 924.739 52.1659 903.2C56.4296 890.415 65.1511 868.058 67.987 855.784C71.8163 841.492 80.8307 820.826 85.5735 805.341C89.7442 795.183 93.5292 783.764 97.1801 773.354C100.303 764.446 104.095 754.215 106.631 745.208Z" fill="#0EC967"/>
<path d="M14.3749 1012.41C17.0377 1009.95 20.1621 1008.93 23.5829 1008.06L23.5411 1008.29C35.5632 1005.68 47.3748 1000.08 59.023 996.654C77.061 991.486 94.984 985.992 112.807 980.116C119.279 977.988 129.169 970.119 135.346 972.82C136.956 974.524 136.892 975.158 137.433 977.557C125.481 1014.73 112.136 1053.67 101.13 1091H0V1052.55C2.89244 1047.87 12.0422 1019.33 14.3749 1012.41Z" fill="#17F677"/>
<path d="M0 770.038L0.31768 770.777C4.96075 781.752 -0.221543 814.483 2.30516 827.427C2.92614 830.608 21.2124 837.013 24.6348 839.197C28.1334 836.631 33.6062 816.772 36.0109 813.966L36.5251 814.188C33.576 822.924 29.7931 831.476 26.4904 840.107C23.6053 844.912 20.3503 853.839 18.2124 859.309C14.1557 869.848 10.0317 880.356 5.84066 890.84C4.88414 893.208 1.28673 902.338 0 904.073V770.038Z" fill="#1FB04E"/>
<path d="M67.9602 855.866C67.2747 858.424 57.1336 857.077 45.6307 853.995C34.1279 850.913 26.1018 842.55 26.7873 839.992C27.4727 837.434 36.6103 841.649 48.1131 844.731C59.6159 847.813 68.6457 853.308 67.9602 855.866Z" fill="#181818"/>
<rect x="315" y="568" width="36" height="39" fill="#19E36D"/>
<path d="M331.434 421.698C325.675 439.571 309.124 441.301 291.251 435.542C273.379 429.783 260.952 418.716 266.711 400.843C272.47 382.97 291.627 373.15 309.5 378.909C327.373 384.668 337.193 403.826 331.434 421.698Z" fill="#232323"/>
<path d="M166.146 358.437C160.387 376.31 143.837 378.039 125.964 372.28C108.091 366.521 95.6641 355.454 101.423 337.581C107.182 319.709 126.34 309.889 144.212 315.648C162.085 321.407 171.905 340.564 166.146 358.437Z" fill="#232323"/>
</g>
<defs>
<clipPath id="clip0_64_406">
<rect width="1007" height="1260" fill="white" transform="translate(0 -169)"/>
</clipPath>
</defs>
</svg>
