<svg width="1007" height="1260" viewBox="0 0 1007 1260" fill="none" xmlns="http://www.w3.org/2000/svg">
<g clip-path="url(#clip0_64_354)">
<path d="M288.908 286.545H289.911C295.246 286.503 301.207 285.337 306.596 284.966C332.204 283.205 356.621 272.875 370.539 301.926C372.7 309.75 372.728 317.561 369.538 325.144L368.764 328.559C371.205 330.29 408.475 324.159 416.176 330.519C424.646 337.514 430.071 341.207 432.217 353.312C433.623 361.551 431.63 370.009 426.692 376.753C423.155 381.676 419.026 384.978 413.68 387.775C425.147 398.408 434.84 406.473 445.698 418.069C480.624 455.369 494.628 492.921 496.644 543.529C497.35 566.294 495.996 589.075 492.598 611.596C492.366 613.034 491.498 618.901 491.011 619.978C490.881 624.857 487.744 638.583 486.569 643.855C477.638 684.098 464.239 723.221 446.621 760.491C444.377 765.346 439.481 776.235 436.518 780.167C433.459 790.158 410.222 825.516 403.524 834.923C400.31 839.432 394.149 846.747 391.546 851.312C370.053 877.54 347.169 900.42 316.192 915.235C313.601 916.478 304.532 920.551 302.062 921.098C273.056 929.878 241.844 935.366 211.423 933.114C208.854 933.268 207.63 932.923 205.688 934.184C204.845 936.375 204.043 938.571 203.366 940.817C197.768 959.378 191.115 977.909 186.071 996.618C180.845 1011.09 175.406 1028.73 170.872 1043.59C168.89 1048.18 167.234 1053.02 165.796 1057.81C156.883 1087.54 146.483 1116.9 137.433 1146.56C125.481 1183.73 112.136 1222.67 101.13 1260H0V1221.55C2.89244 1216.87 12.0422 1188.33 14.3749 1181.41C19.7058 1167.28 24.9372 1151.09 29.9109 1136.71C37.4483 1115.24 44.8667 1093.74 52.1659 1072.2C56.4297 1059.42 65.1511 1037.06 67.987 1024.78C57.0468 1017.43 39.6847 1011.47 26.4904 1009.11C23.6053 1013.91 20.3503 1022.84 18.2124 1028.31C14.1557 1038.85 10.0317 1049.36 5.84066 1059.84C4.88414 1062.21 1.28673 1071.34 0 1073.07V939.039V387.298C1.26185 386.137 7.55459 378.443 8.94686 376.759C15.0808 369.337 20.8808 363.353 27.5886 356.717C75.4684 309.345 115.535 304.895 179.362 298.254C192.214 296.473 205.04 295.905 218.164 293.907C219.073 294.026 221.327 293.85 222.362 293.797L224.991 293.485C245.806 290.634 267.946 288.659 288.908 286.545ZM106.631 914.208C99.797 911.107 76.2583 902.18 69.2339 900.156C62.5127 918.945 53.877 938.633 46.774 957.957L26.4904 1009.11C33.641 1010.7 63.5702 1019.23 67.987 1024.78C72.1577 1014.63 93.5292 952.765 97.1801 942.355C100.303 933.446 104.095 923.215 106.631 914.208ZM150.009 411.928C153.021 411.412 154.094 410.838 157.051 411.591L157.029 412.49C154.929 414.151 152.44 415.803 151.081 418.018C151.032 419.898 151.323 420.435 151.476 422.077C153.111 439.609 150.637 457.332 152.331 474.98C152.58 477.576 151.191 483.638 152.11 485.348L154.455 484.288C156.026 486.039 160.664 492.788 160.635 495.145L160.136 495.652C158.022 494.003 157.042 492.494 154.828 491.48L154.309 491.952C136.678 481.94 120.514 483.336 105.989 497.884C105.481 501.477 105.005 504.668 107.078 507.919C111.766 510.588 120.579 504.24 125.177 501.656C136.528 495.277 154.871 505.439 154.861 518.947C152.875 528.884 159.666 526.203 164.457 529.928L165.679 529.38L165.607 530.685C163.649 532.428 162.609 532.72 162.058 534.91C162.81 537.046 165.027 540.339 164.951 541.292C164.426 547.893 168.357 552.428 168.613 558.627C170.345 561.361 175.588 563.522 175.721 567.128C172.431 567.205 162.483 561.215 157.01 565.293L156.896 565.679C152.47 568.681 150.057 570.702 149.252 576.522C147.418 589.778 152.762 604.797 160.277 615.351C161.167 616.613 162.098 617.843 163.069 619.043C175.035 631.046 184.849 635.254 201.578 636.854C208.054 639.007 213.919 635.482 218.128 636.676C216.848 638.663 218.472 636.442 216.84 637.844C212.933 641.191 214.027 643.991 209.626 648.125L209.843 649.029C211.888 649.436 214.984 650.051 217 650.457C217.719 650.598 218.5 653.17 220.052 651.81C220.355 651.595 220.657 651.38 220.96 651.164C222.898 653.478 227.245 661.414 226.924 664.373L226.299 664.798C226.406 664.866 229.479 666.681 229.432 666.619C230.022 667.394 229.834 669.412 231.127 669.824L231.607 667.61C232.552 669.597 231.147 672.162 232.083 673.534C234.879 677.638 240.727 681.797 244.181 685.119C245.432 686.325 243.151 687.783 248.089 690.656C253.579 693.843 260.466 702.702 265.329 707.286C266.383 708.283 270.517 709.772 271.109 710.682C273.539 714.441 277.182 720.261 282.163 721.516L283.419 720.692C284.485 723.337 287.348 726.475 289.441 728.395L297.063 729.404C300.239 733.852 303.228 738.281 306.246 742.822C307.919 743.874 310.072 743.702 311.914 744.649C313.86 745.646 321.709 753.422 323.123 753.361C332.285 752.961 328.884 757.083 333.289 759.649H334.336C333.711 757.575 332.564 755.274 333.036 753.564L333.714 753.416C334.16 756.049 337.236 759.796 339.44 761.23C339.913 759.882 339.678 759.47 339.537 757.951L340.132 757.741L340.228 762.411L340.61 762.626L342.327 761.064C344.364 761.31 348.341 762.306 349.616 761.691L350.395 760.067C350.55 761.347 350.733 762.626 350.943 763.906C352.608 765.05 354.23 765.659 354.595 767.234L353.988 768.299L352.182 768.508C352.518 768.52 352.855 768.539 353.192 768.557C353.391 770.329 353.005 769.628 354.332 770.747C356.682 770.04 368.975 775.257 373.781 775.768C376.492 778.044 379.314 782.135 382.921 781.342C386.182 780.628 388.82 784.879 391.005 786.073C394.337 787.894 393.505 783.132 397.058 787.5C401.463 788.755 404.131 789.303 408.044 791.702C410.686 791.653 417.874 790.804 418.969 790.866L419.084 792.564C420.391 791.998 420.998 791.61 422.473 791.905C423.021 793.862 423.308 794.803 424.095 796.667L425.375 797.203C429.342 795.443 432.835 781.096 436.518 780.167C439.481 776.235 444.377 765.346 446.621 760.491C464.239 723.221 477.638 684.098 486.569 643.855C487.744 638.583 490.881 624.857 491.011 619.978C491.498 618.901 492.366 613.034 492.598 611.596C495.996 589.075 497.35 566.294 496.644 543.529C494.628 492.921 480.624 455.369 445.698 418.069C434.84 406.473 425.147 398.408 413.68 387.775C419.026 384.978 423.155 381.676 426.692 376.753C431.63 370.009 433.623 361.551 432.217 353.312C430.071 341.207 424.646 337.514 416.176 330.519C408.475 324.159 371.205 330.29 368.764 328.559L369.538 325.144C372.728 317.561 372.7 309.75 370.539 301.926C356.621 272.875 332.204 283.205 306.596 284.966C301.207 285.337 295.246 286.503 289.911 286.545H288.908C267.946 288.659 245.806 290.634 224.991 293.485L222.362 293.797C221.327 293.85 219.073 294.026 218.164 293.907C205.04 295.905 192.214 296.473 179.362 298.254C181.121 298.412 181.582 298.151 182.812 299.026L183.067 299.034L182.195 299.997C182.317 301.198 182.181 300.824 182.786 301.797C179.976 305.476 178.247 302.758 176.146 307.411C171.817 316.999 171.255 329.741 166.786 338.692L168.41 339.948L168.424 340.841C164.859 344.319 165.394 345.496 164.264 350.355L163.193 349.5L163.464 349.675L162.884 349.83C161.485 357.922 163.619 362.499 158.548 370.267C158.173 370.843 156.629 379.869 156.281 381.528C158.256 383.535 159.68 384.723 160.983 387.235L160.78 388.429C157.499 390.446 148.978 390.309 148.298 393.401C143.003 395.853 118.304 404.396 135.909 415.723C139.53 418.052 146.226 413.057 150.009 411.928Z" fill="#19E36D"/>
<path d="M288.908 286.545H289.911C295.246 286.503 301.207 285.337 306.595 284.966C332.204 283.205 356.621 272.875 370.538 301.926C372.7 309.75 372.728 317.561 369.538 325.144L368.764 328.559C371.205 330.29 408.475 324.159 416.176 330.519C424.646 337.514 430.071 341.207 432.217 353.312C433.623 361.551 431.63 370.009 426.692 376.753C423.155 381.676 419.026 384.978 413.679 387.775C425.147 398.408 434.839 406.473 445.698 418.069C480.624 455.369 494.628 492.921 496.643 543.529C497.35 566.294 495.996 589.075 492.598 611.596C492.366 613.034 491.498 618.901 491.011 619.978C490.881 624.857 487.744 638.583 486.569 643.855C477.638 684.098 464.239 723.221 446.621 760.491C444.377 765.346 439.481 776.235 436.518 780.167C432.835 781.096 429.342 795.443 425.375 797.203L424.095 796.667C423.308 794.803 423.021 793.862 422.473 791.905C420.998 791.61 420.391 791.998 419.084 792.564L418.969 790.866C417.874 790.804 410.686 791.653 408.044 791.702C404.131 789.303 401.463 788.755 397.058 787.5C393.504 783.132 394.337 787.894 391.005 786.073C388.82 784.879 386.182 780.628 382.921 781.342C379.314 782.135 376.492 778.044 373.781 775.768C368.975 775.257 356.682 770.04 354.332 770.747C353.005 769.628 353.391 770.329 353.192 768.557C352.855 768.539 352.518 768.52 352.182 768.508L353.988 768.299L354.595 767.234C354.23 765.659 352.608 765.05 350.943 763.906C350.733 762.626 350.55 761.347 350.395 760.067L349.616 761.691C348.341 762.306 344.364 761.31 342.326 761.064L340.61 762.626L340.228 762.411L340.132 757.741L339.537 757.951C339.678 759.47 339.913 759.882 339.44 761.23C337.236 759.796 334.16 756.049 333.714 753.416L333.036 753.564C332.564 755.274 333.711 757.575 334.336 759.649H333.289C328.884 757.083 332.285 752.961 323.123 753.361C321.709 753.422 313.86 745.646 311.914 744.649C310.072 743.702 307.919 743.874 306.246 742.822C303.228 738.282 300.239 733.852 297.062 729.404L289.441 728.395C287.348 726.475 284.484 723.337 283.419 720.692L282.163 721.516C277.181 720.261 273.539 714.441 271.109 710.682C270.517 709.772 266.383 708.283 265.329 707.286C260.466 702.703 253.579 693.843 248.089 690.656C243.151 687.783 245.432 686.325 244.181 685.119C240.726 681.797 234.879 677.638 232.083 673.534C231.147 672.162 232.552 669.597 231.607 667.61L231.126 669.824C229.834 669.412 230.022 667.394 229.432 666.619C229.478 666.681 226.406 664.866 226.299 664.798L226.924 664.373C227.245 661.414 222.898 653.478 220.96 651.164C220.657 651.38 220.355 651.595 220.052 651.81C218.5 653.17 217.719 650.598 216.999 650.457C214.984 650.051 211.888 649.436 209.843 649.029L209.626 648.125C214.026 643.991 212.933 641.191 216.84 637.844C218.472 636.442 216.848 638.663 218.128 636.676C213.919 635.482 208.054 639.007 201.578 636.854C205.342 636.854 206.803 636.879 210.481 636.19C224.139 635.839 256.514 619.498 250.645 601.759C247.704 592.868 230.073 588.848 221.609 585.536C212.04 582.246 202.596 578.534 193.063 575.085C180.916 571.487 169.345 563.665 156.896 565.679L157.01 565.293C162.483 561.215 172.431 567.205 175.72 567.128C175.588 563.522 170.345 561.361 168.613 558.627C168.357 552.428 164.426 547.893 164.951 541.292C165.027 540.339 162.81 537.046 162.058 534.91C162.609 532.72 163.649 532.428 165.607 530.685L165.679 529.38L164.457 529.928C159.666 526.203 152.874 528.884 154.861 518.947C157.271 532.301 168.685 529.605 168.878 518.202C169.075 506.597 161.774 499.741 154.309 491.952L154.828 491.48C157.042 492.494 158.021 494.003 160.136 495.652L160.635 495.145C160.664 492.788 156.026 486.039 154.455 484.288L152.11 485.348C151.191 483.638 152.58 477.576 152.331 474.98C150.637 457.332 153.111 439.609 151.476 422.077C151.323 420.435 151.032 419.898 151.081 418.018C152.44 415.803 154.928 414.151 157.029 412.49L157.051 411.591C154.094 410.838 153.021 411.412 150.009 411.928C160.261 405.72 174.157 404.999 185.659 406.463C190.353 407.06 201.37 410.072 204.343 404.924C211.863 391.901 195.54 389.404 186.459 389.002C171.782 387.623 161.694 389.663 148.298 393.401C148.978 390.309 157.499 390.446 160.78 388.429L160.983 387.235C159.68 384.723 158.256 383.535 156.281 381.528C156.629 379.869 158.173 370.843 158.548 370.267C163.619 362.499 161.485 357.922 162.884 349.83L163.464 349.675L163.193 349.5L164.264 350.355C165.394 345.496 164.859 344.319 168.424 340.841L168.41 339.948L166.785 338.692C171.255 329.741 171.817 316.999 176.146 307.411C178.247 302.758 179.976 305.476 182.786 301.797C182.181 300.824 182.317 301.198 182.195 299.997L183.067 299.034L182.812 299.026C181.582 298.151 181.121 298.412 179.362 298.254C192.214 296.473 205.04 295.905 218.164 293.907C219.073 294.026 221.327 293.85 222.362 293.797L224.991 293.485C245.806 290.634 267.946 288.659 288.908 286.545ZM333.164 443.818C320.49 454.943 336.486 460.851 344.316 466.299C351.701 471.508 357.852 478.275 362.337 486.121C364.835 490.418 369.251 502.276 372.461 503.97C381.38 507.283 385.758 500.944 384.141 492.39C381.154 476.59 350.592 439.345 333.164 443.818ZM317.045 572.165C318.053 574.832 319.407 578.55 319.723 581.244C320.435 587.322 324.728 590.444 330.622 588.047C336.491 585.66 333.553 575.028 331.963 570.876C326.249 555.956 311.937 545.494 295.678 547.197C286.003 548.061 278.488 551.156 271.775 558.279C269.295 560.91 269.78 567.262 271.894 569.709C279.828 574.541 299.882 546.638 317.045 572.165Z" fill="#19E36D"/>
<path d="M333.165 443.818C332.084 423.059 334.399 404.435 335.617 383.844C335.874 379.498 335.792 379.178 338.042 375.436C339.216 373.483 341.46 352.168 342.074 351.326C348.513 341.54 351.934 329.293 356.073 318.083C360.421 306.308 357.789 308.595 365.443 297.38C365.051 296.268 365.031 296.174 364.888 295.003L365.477 295.269C370.238 302.66 371.615 306.537 370.673 315.418C370.324 318.713 369.349 321.895 369.538 325.143L368.765 328.558C371.205 330.29 408.475 324.159 416.177 330.519C424.647 337.513 430.071 341.207 432.217 353.312C433.623 361.551 431.63 370.009 426.693 376.752C423.155 381.675 419.027 384.978 413.68 387.775C425.147 398.407 434.84 406.472 445.698 418.069C480.625 455.369 494.628 492.921 496.644 543.529C497.35 566.294 495.996 589.075 492.598 611.596C492.366 613.034 491.498 618.901 491.011 619.978C489.202 622.592 487.9 631.513 487.195 635.143C485.987 634.78 483.815 627.939 481.978 627.65C475.89 626.684 469.068 626.284 463.286 623.755C457.054 620.839 452.828 614.872 446.319 611.993C438.845 608.687 432.824 612.854 430.311 603.293C429.2 599.071 422.001 600.175 417.959 598.287C413.017 597.859 410.163 585.821 407.97 584.703C401.96 581.639 399.166 583.165 396.67 574.601C395.733 571.387 392.725 570.892 389.797 569.919C386.547 568.84 385.441 563.029 382.925 560.622C381.51 558.376 373.648 551.559 373.119 549.994C370.341 541.778 367.843 537.964 361.738 532.781C360.743 531.935 356.666 523.136 355.25 521.596C354.602 520.89 353.597 513.147 352.191 510.43C344.972 506.213 347.964 491.345 342.236 485.35C335.709 478.519 341.14 478.33 341.335 473.76C341.372 472.875 339.394 469.287 339.072 468.007L340.294 468.383C342.392 467.967 342.695 467.702 344.317 466.298C351.701 471.508 357.852 478.274 362.337 486.121C364.836 490.417 369.251 502.275 372.462 503.969C381.381 507.283 385.759 500.943 384.141 492.39C381.154 476.59 350.592 439.344 333.165 443.818Z" fill="#19E36D"/>
<path d="M106.631 914.208C134.885 922.212 162.104 929.539 191.521 931.92C194.891 932.191 209.564 931.908 211.423 933.114C208.854 933.268 207.63 932.923 205.688 934.184C204.845 936.374 204.043 938.571 203.366 940.816C197.768 959.378 191.115 977.909 186.071 996.618C180.845 1011.09 175.406 1028.73 170.872 1043.59C168.89 1048.18 167.234 1053.02 165.796 1057.81C156.883 1087.54 146.483 1116.9 137.433 1146.56C125.481 1183.73 112.136 1222.67 101.13 1260H0V1221.55C2.89244 1216.87 12.0422 1188.33 14.3749 1181.41C19.7058 1167.28 24.9372 1151.09 29.9109 1136.71C37.4483 1115.24 44.8667 1093.74 52.1659 1072.2C56.4296 1059.42 65.1511 1037.06 67.987 1024.78C71.8163 1010.49 80.8307 989.826 85.5735 974.341C89.7442 964.183 93.5292 952.764 97.1801 942.354C100.303 933.446 104.095 923.215 106.631 914.208Z" fill="#0EC967"/>
<path d="M14.3749 1181.41C17.0377 1178.95 20.1621 1177.93 23.5829 1177.06L23.5411 1177.29C35.5632 1174.68 47.3748 1169.08 59.023 1165.65C77.061 1160.49 94.984 1154.99 112.807 1149.12C119.279 1146.99 129.169 1139.12 135.346 1141.82C136.956 1143.52 136.892 1144.16 137.433 1146.56C125.481 1183.73 112.136 1222.67 101.13 1260H0V1221.55C2.89244 1216.87 12.0422 1188.33 14.3749 1181.41Z" fill="#17F677"/>
<path d="M0 939.039L0.31768 939.777C4.96075 950.753 -0.221543 983.483 2.30516 996.428C2.92614 999.608 21.2124 1006.01 24.6348 1008.2C28.1334 1005.63 33.6062 985.772 36.0109 982.966L36.5251 983.188C33.576 991.924 29.7931 1000.48 26.4904 1009.11C23.6053 1013.91 20.3503 1022.84 18.2124 1028.31C14.1557 1038.85 10.0317 1049.36 5.84066 1059.84C4.88414 1062.21 1.28673 1071.34 0 1073.07V939.039Z" fill="#1FB04E"/>
<path d="M788.032 649.386C795.475 635.715 802.051 619.91 809.371 606.022C812.859 599.407 816.421 589.854 821.04 584.26C824.43 580.189 828.97 577.241 834.069 575.804C841.377 573.699 848.771 574.447 855.409 578.209C861.837 581.866 866.525 587.951 868.419 595.098C869.49 598.982 869.607 603.068 868.751 607.007C866.789 616.311 852.382 641.425 847.793 652.21C863.178 643.566 878.871 631.28 894.034 621.897C909.554 612.299 926.034 616.446 934.665 632.258C937.864 638.023 938.546 644.858 936.535 651.139C931.103 668.717 903.969 678.634 889.605 690.92C901.582 688.773 910.569 685.685 921.537 693.48C927.584 697.756 931.663 704.277 932.856 711.58C933.988 718.649 932.253 725.878 928.04 731.661C925.93 734.547 921.088 739.136 917.736 740.127C893.548 747.27 867.878 750.364 843.192 755.766C840.024 756.461 836.493 757.175 833.331 757.636L832.476 757.759C779.622 857.44 703.725 951.774 591.844 986.27C548.202 999.528 501.94 1001.67 457.261 992.496C444.266 989.924 431.8 985.624 420.075 983.261C416.325 983.218 388.583 971.424 383.82 969.234C379.587 967.702 373.943 964.767 369.772 962.749C352.093 951.964 333.098 943.203 316.288 930.88C311.765 927.57 306.845 923.94 302.062 921.098C304.532 920.55 313.601 916.478 316.192 915.235C347.169 900.42 370.053 877.539 391.547 851.312C409.459 861.605 427.493 871.35 447.096 878.105C449.815 879.047 452.788 880.093 455.416 881.243C464.386 883.255 471.4 885.279 480.724 886.842C497.218 889.53 514 890.73 530.652 888.595C619.05 884.301 702.28 780.658 736.316 706.892C738.709 701.712 729.623 634.7 731.653 620.47C732.367 615.128 734.63 610.11 738.167 606.041C753.595 588.567 781.08 596.613 785.577 619.19C787.41 628.4 787.281 639.85 788.032 649.386Z" fill="#16EF75"/>
<path d="M391.547 851.312C409.459 861.605 427.493 871.35 447.096 878.105C449.815 879.047 452.788 880.093 455.416 881.243C446.915 882.228 426.018 868.969 416.814 867.69C415.154 867.77 409.484 870.993 408.88 872.058C401.06 885.839 393.134 899.688 384.966 913.303C382.389 917.597 377.178 921.51 374.568 926.229C370.446 933.692 369.629 940.41 362.28 945.597C361.266 946.298 360.295 953.33 360.193 955.194C362.759 959.021 383.154 966.299 383.82 969.234C379.587 967.702 373.943 964.767 369.772 962.749C352.093 951.964 333.098 943.203 316.288 930.88C311.765 927.57 306.845 923.94 302.062 921.098C304.532 920.551 313.601 916.478 316.192 915.235C347.169 900.42 370.053 877.539 391.547 851.312Z" fill="#07A85B"/>
<path d="M786.912 663.536C788.702 663.506 790.473 663.647 791.882 664.927C813.486 684.504 813.326 718.009 796.422 740.471C794.355 741.001 794.269 740.939 792.159 740.348C788.751 736.792 792.903 731.163 794.822 727.195C802.727 710.842 802.869 691.825 791.839 676.85C789.588 673.786 785.897 671.774 784.875 667.818C784.986 665.745 785.589 665.302 786.912 663.536Z" fill="#167B42"/>
<path d="M813.763 660.516C815.584 660.46 816.058 660.608 817.78 660.959C818.284 661.377 818.795 661.795 819.299 662.214C820.074 666.994 820.517 673.479 821.538 678.044C822.91 683.932 824.965 689.635 827.665 695.043C830.815 701.281 836.013 706.806 840.971 711.654C844.158 714.761 852.044 719.818 853.625 723.202C853.514 726.007 853.532 725.165 851.921 727.865C848.814 728.161 847.51 727.453 844.877 725.651C826.884 713.315 813.486 692.329 811.967 670.347C811.708 666.656 811.715 663.653 813.763 660.516Z" fill="#167B42"/>
<path d="M67.9599 1024.87C67.2744 1027.42 57.1333 1026.08 45.6305 1023C34.1277 1019.91 26.1015 1011.55 26.787 1008.99C27.4725 1006.43 36.61 1010.65 48.1128 1013.73C59.6157 1016.81 68.6454 1022.31 67.9599 1024.87Z" fill="#2E2E2E"/>
</g>
<defs>
<clipPath id="clip0_64_354">
<rect width="1007" height="1260" fill="white"/>
</clipPath>
</defs>
</svg>
